<?xml version="1.0" encoding="utf-8"?>
<!-- Generator: Adobe Illustrator 17.1.0, SVG Export Plug-In . SVG Version: 6.00 Build 0)  -->
<!DOCTYPE svg PUBLIC "-//W3C//DTD SVG 1.1//EN" "http://www.w3.org/Graphics/SVG/1.1/DTD/svg11.dtd">
<svg version="1.1" id="Mail" xmlns="http://www.w3.org/2000/svg" xmlns:xlink="http://www.w3.org/1999/xlink" x="0px" y="0px"
	 viewBox="187.5 187.5 125 125" enable-background="new 187.5 187.5 125 125" xml:space="preserve">
<g>
	<circle fill="#FFFFFF" cx="250" cy="250" r="62.5"/>
	<path fill="#67696B" d="M279.2,224h-58.4c-3.2,0-5.8,2.6-5.8,5.8v35c0,3.2,2.6,5.8,5.8,5.8h58.4c3.2,0,5.8-2.6,5.8-5.8v-35
		C285.1,226.6,282.4,224,279.2,224z M282,268.8c-0.2,0.2-0.6,0.2-0.8,0L260,249.1l-8.4,8.1c-0.8,0.8-2.2,0.8-3,0l-8.4-8.1L219,268.8
		c-0.2,0.2-0.6,0.2-0.8,0s-0.2-0.6,0-0.8l19.6-21.2l-19.6-18.9c-0.2-0.2-0.2-0.6,0-0.8s0.6-0.2,0.8,0l31.2,25.5l31.1-25.5
		c0.2-0.2,0.6-0.2,0.8,0.1c0.2,0.2,0.2,0.6,0,0.8l-19.8,19c0.1-0.1,0.1-0.1,0.2-0.2L282,268C282.2,268.2,282.2,268.6,282,268.8z"/>
</g>
</svg>
