<?xml version="1.0" encoding="utf-8"?>
<!-- Generator: Adobe Illustrator 17.1.0, SVG Export Plug-In . SVG Version: 6.00 Build 0)  -->
<!DOCTYPE svg PUBLIC "-//W3C//DTD SVG 1.1//EN" "http://www.w3.org/Graphics/SVG/1.1/DTD/svg11.dtd">
<svg version="1.1" id="Mail" xmlns="http://www.w3.org/2000/svg" xmlns:xlink="http://www.w3.org/1999/xlink" x="0px" y="0px"
	 viewBox="187.5 187.5 125 125" enable-background="new 187.5 187.5 125 125" xml:space="preserve">
<g>
	<circle fill="#FFFFFF" cx="250" cy="250" r="62.5"/>
	<path fill="#67696B" d="M282.8,225.1L282.8,225.1l-6.2-5.1l-24.4-18.8c-0.6-0.5-1.4-0.7-2.1-0.7c-0.8,0-1.5,0.2-2.1,0.7L223.5,220
		c-0.1,0-0.1,0.1-0.2,0.1v0l-6.1,4.9l0.1,0c-1.4,1.1-2.4,2.8-2.4,4.7v35.1c0,3.2,2.6,5.9,5.9,5.9h58.5c3.2,0,5.9-2.6,5.9-5.9v-35.1
		C285.2,227.8,284.2,226.1,282.8,225.1z M282.1,268.8c-0.2,0.2-0.6,0.2-0.8,0l-6.9-6.4c0,0-0.1-0.1-0.1-0.1L252.4,242
		c-0.7-0.6-1.5-0.9-2.4-0.9c-0.9,0-1.7,0.3-2.4,0.9l-21.8,20.3c-0.1,0.1-0.1,0.1-0.2,0.2l-6.8,6.3c-0.2,0.2-0.6,0.2-0.8,0
		c-0.2-0.2-0.2-0.6,0-0.8l19.6-21.2l-19-18.3c-0.2-0.2-0.2-0.6,0-0.8c0.1-0.1,0.2-0.2,0.4-0.2l0,0h62.1c0.2,0,0.3,0.1,0.5,0.2
		c0.2,0.2,0.2,0.6,0,0.8l-19.3,18.5c0.1-0.1,0.1-0.1,0.2-0.2l19.6,21.2C282.3,268.2,282.3,268.6,282.1,268.8z"/>
</g>
</svg>
