<?xml version="1.0" encoding="utf-8"?>
<!-- Generator: Adobe Illustrator 17.1.0, SVG Export Plug-In . SVG Version: 6.00 Build 0)  -->
<!DOCTYPE svg PUBLIC "-//W3C//DTD SVG 1.1//EN" "http://www.w3.org/Graphics/SVG/1.1/DTD/svg11.dtd">
<svg version="1.1" id="Layer_2_copy_2" xmlns="http://www.w3.org/2000/svg" xmlns:xlink="http://www.w3.org/1999/xlink" x="0px"
	 y="0px" viewBox="187.5 187.5 125 125" enable-background="new 187.5 187.5 125 125" xml:space="preserve">
<g>
	<circle fill="#FFFFFF" cx="250" cy="250" r="62.5"/>
	<path fill="#67696B" d="M275.7,261.9c-1.5-0.9-6.1-3.4-8.3-4.6c-1.1-0.6-3.2-0.9-4.7,0.6c0,0,0,0,0,0c-1,1.2-3.1,3.4-4.3,4.6l0,0
		c0,0,0,0,0,0c-0.1,0.1-0.1,0.2-0.2,0.2c-0.4,0.4-0.9,0.8-1.9,0.8c-1.8,0-5.4-1-11.3-6.9c-8.8-8.9-9.1-12.3-8.2-13.2
		c1-0.9,3.8-3.9,3.8-5.4c0-1.6-0.3-3-0.7-4c-1-2.8-3-7.7-3.9-9.8c-0.4-0.8-1.3-1.8-2.8-1.8c-0.8,0-2,0-2.8,0c-0.9,0-2,0.4-2.9,1.2
		c-2.1,1.7-5.4,5.3-5.4,9.5c0,1.4,0,2.3,0,3.1c0,1.3,0.2,3.2,0.7,4.6c1.7,4.9,6.6,15.4,14.7,23c10.3,9.8,19.7,13.8,28,13.8
		c5.3,0,8.8-3.3,10.5-5.6c0.9-1.3,1.2-2.6,1.2-3.6c0-1.1,0-2.7,0-3.7C277.6,263.8,276.8,262.5,275.7,261.9z"/>
</g>
</svg>
